<svg id="Layer_1" data-name="Layer 1" xmlns="http://www.w3.org/2000/svg" viewBox="0 0 80 80"><defs><style>.cls-1{opacity:0.67;}.cls-2{fill:#fff;}</style></defs><title>takePhoto</title><g class="cls-1"><path d="M40,14A26,26,0,1,1,14,40,26,26,0,0,1,40,14m0-2A28,28,0,1,0,68,40,28,28,0,0,0,40,12Z"/></g><g class="cls-1"><path class="cls-2" d="M40,12A28,28,0,1,1,12,40,28,28,0,0,1,40,12m0-2A30,30,0,1,0,70,40,30,30,0,0,0,40,10Z"/></g><g class="cls-1"><circle class="cls-2" cx="40" cy="40" r="26"/></g><g class="cls-1"><path d="M42.5,39.58a3.54,3.54,0,1,1-2.5-1A3.41,3.41,0,0,1,42.5,39.58Zm2,5.11a5.21,5.21,0,0,0,0-5.22,5.2,5.2,0,0,0-1.9-1.9,5.22,5.22,0,0,0-5.22,0,5.2,5.2,0,0,0-1.9,1.9,5.21,5.21,0,0,0,0,5.22,5.2,5.2,0,0,0,1.9,1.9,5.21,5.21,0,0,0,5.22,0A5.2,5.2,0,0,0,44.51,44.69Zm4.87-7.24a2.57,2.57,0,0,0-.77-1.88,2.53,2.53,0,0,0-1.87-.78H45.15l-1.22-2.08H36.13L34.9,34.79H33.26a2.53,2.53,0,0,0-1.87.78,2.57,2.57,0,0,0-.77,1.88v7.14a2.64,2.64,0,0,0,.78,1.9,2.5,2.5,0,0,0,1.86.8H36a4.56,4.56,0,0,1-1.56-1.74H33.26a.83.83,0,0,1-.63-.29,1,1,0,0,1-.27-.68V37.45a.9.9,0,0,1,.26-.66.86.86,0,0,1,.64-.27h2.63l1.23-2.08H43l1.2,2.08h2.58a.86.86,0,0,1,.64.27.9.9,0,0,1,.26.66v7.14a1,1,0,0,1-.27.68.83.83,0,0,1-.63.29H45.6A4.56,4.56,0,0,1,44,47.29h2.7a2.5,2.5,0,0,0,1.86-.8,2.64,2.64,0,0,0,.78-1.9Z"/></g></svg>